<svg xmlns="http://www.w3.org/2000/svg" viewBox="0 0 64 64" role="img" aria-label="Bubles">
  <defs>
    <filter id="glow" x="-40%" y="-40%" width="180%" height="180%">
      <feGaussianBlur stdDeviation="2.4" result="blur" />
      <feMerge>
        <feMergeNode in="blur" />
        <feMergeNode in="SourceGraphic" />
      </feMerge>
    </filter>
  </defs>

  <circle cx="18" cy="20" r="10" fill="#4285f4" filter="url(#glow)" />
  <circle cx="35" cy="16" r="9" fill="#fbbc05" filter="url(#glow)" />
  <circle cx="47" cy="31" r="10" fill="#34a853" filter="url(#glow)" />
  <circle cx="26" cy="43" r="12" fill="#ffffff" filter="url(#glow)" />
  <circle cx="26" cy="43" r="7" fill="#111111" />

  <path
    d="M22 12h16c8 0 13 4 13 10 0 4-2 7-6 9 5 2 8 6 8 11 0 7-6 11-15 11H22V12Zm12 16c4 0 6-1 6-4s-2-4-6-4h-3v8h3Zm2 17c4 0 7-2 7-5s-3-5-7-5h-5v10h5Z"
    fill="#111111"
    opacity="0.92"
  />
  <path
    d="M20 10h16c8 0 13 4 13 10 0 4-2 7-6 9 5 2 8 6 8 11 0 7-6 11-15 11H20V10Zm12 16c4 0 6-1 6-4s-2-4-6-4h-3v8h3Zm2 17c4 0 7-2 7-5s-3-5-7-5h-5v10h5Z"
    fill="#ffffff"
  />
</svg>
